<?xml version="1.0" standalone="no"?><!DOCTYPE svg PUBLIC "-//W3C//DTD SVG 1.1//EN" "http://www.w3.org/Graphics/SVG/1.1/DTD/svg11.dtd"><svg t="1529918832489" class="icon" style="" viewBox="0 0 1024 1024" version="1.1" xmlns="http://www.w3.org/2000/svg" p-id="768" xmlns:xlink="http://www.w3.org/1999/xlink" width="200" height="200"><defs><style type="text/css"></style></defs><path d="M768 488.021333l128 128 0 194.005333q0 34.005333-25.984 59.989333t-59.989333 25.984l-596.010667 0q-34.005333 0-59.989333-25.984t-25.984-59.989333l0-280.021333 128 128 169.984-171.989333 171.989333 171.989333zM896 214.016l0 280.021333-128-128-169.984 171.989333-171.989333-171.989333-169.984 171.989333-128-130.005333 0-194.005333q0-34.005333 25.984-59.989333t59.989333-25.984l596.010667 0q34.005333 0 59.989333 25.984t25.984 59.989333z" p-id="769" fill="#dbdbdb"></path></svg>